# xmcd
#
# Track frame offsets: 
#        150
#        17586
#        26943
#        43565
#        60415
#        76071
#        100568
#        111997
#        126128
#        151804
#        168217
#        186376
#        201013
#        220475
#
# Disc length: 3106 seconds
#
# Revision: 0
# Processed by: cddbd v1.5.2PL0 Copyright (c) Steve Scherf et al.
# Submitted via: ExactAudioCopyFreeDBPlugin 1.0
#
DISCID=b10c200e
DTITLE=Meyer - .com@meyer
DYEAR=2001
DGENRE=Blues
TTITLE0=Mohair Sam
TTITLE1=Rocky Road Blues
TTITLE2=Shaky Ground
TTITLE3=Le Déluge
TTITLE4=Lucille
TTITLE5=Rainy Night In Georgia
TTITLE6=Shakin' All Over
TTITLE7=Bad Moon Rising
TTITLE8=The Beat Goes On
TTITLE9=Rosie
TTITLE10=Crazy Cajun Cakewalk Band
TTITLE11=I'll Make Love To You Anytime
TTITLE12=Downhome Girl
TTITLE13=Bright Side Of The Road
EXTD=
EXTT0=
EXTT1=
EXTT2=
EXTT3=
EXTT4=
EXTT5=
EXTT6=
EXTT7=
EXTT8=
EXTT9=
EXTT10=
EXTT11=
EXTT12=
EXTT13=
PLAYORDER=
